<svg xmlns="http://www.w3.org/2000/svg" fill="none" viewBox="0 0 100 100" height="100" width="100">
<g clip-path="url(#clip0_11_9)">
<path stroke-linejoin="round" stroke-linecap="round" stroke-width="1.5873" stroke="#042436" d="M49.8556 39.7279C45.8227 35.0469 41.0165 33.8339 35.3581 35.9226C31.7679 37.2495 29.9646 40.0782 29.0215 43.7214C27.6979 48.8227 29.4516 53.2235 32.2312 57.1382C36.8513 63.6496 42.7827 68.7203 49.049 73.3749C49.6984 73.8566 50.323 73.9749 50.8358 73.5414C57.309 68.0941 64.1173 62.9927 68.6919 55.4742C70.6483 52.2557 72.0463 48.9103 71.1529 44.7636C69.1345 35.3972 58.4672 32.0561 52.4407 37.6304C51.6631 38.3485 50.8565 39.0361 50.0624 39.7322"></path>
<path stroke-width="1.5873" stroke="#042436" d="M49.8675 98.9413C76.9702 98.9413 98.9413 76.9702 98.9413 49.8675C98.9413 22.7648 76.9702 0.793701 49.8675 0.793701C22.7648 0.793701 0.793701 22.7648 0.793701 49.8675C0.793701 76.9702 22.7648 98.9413 49.8675 98.9413Z"></path>
</g>
<defs>
<clipPath id="clip0_11_9">
<rect fill="white" height="100" width="100"></rect>
</clipPath>
</defs>
</svg>
