<svg xmlns="http://www.w3.org/2000/svg" fill="none" viewBox="0 0 100 100" height="100" width="100">
<g clip-path="url(#clip0_11_21)">
<path stroke-width="1.5873" stroke="#042436" d="M49.8675 98.9413C76.9702 98.9413 98.9413 76.9702 98.9413 49.8675C98.9413 22.7648 76.9702 0.793701 49.8675 0.793701C22.7648 0.793701 0.793701 22.7648 0.793701 49.8675C0.793701 76.9702 22.7648 98.9413 49.8675 98.9413Z"></path>
<path stroke-width="1.5873" stroke="#042436" d="M40.0996 23.6486V12.3384L49.3533 6.68335L59.1212 12.3384V23.6486L49.3533 28.5325L40.0996 23.6486Z"></path>
<path fill="#042436" d="M49.3534 39.5855L53.9355 31.649H44.7712L49.3534 39.5855ZM48.5597 28.2754V32.4426H50.147V28.2754H48.5597Z"></path>
<path stroke-width="1.5873" stroke="#042436" d="M0.51416 49.0737H99.735"></path>
<path stroke-width="1.5873" stroke="#042436" d="M1.02808 59.356H98.7063"></path>
<path stroke-width="1.5873" stroke="#042436" d="M1.54224 38.792H98.1927"></path>
<path fill="#042436" d="M49.0963 86.3683C53.2132 86.3683 56.5507 83.0308 56.5507 78.9139C56.5507 74.7969 53.2132 71.4595 49.0963 71.4595C44.9793 71.4595 41.6418 74.7969 41.6418 78.9139C41.6418 83.0308 44.9793 86.3683 49.0963 86.3683Z"></path>
</g>
<defs>
<clipPath id="clip0_11_21">
<rect fill="white" height="100" width="100"></rect>
</clipPath>
</defs>
</svg>
