<svg xmlns="http://www.w3.org/2000/svg" fill="none" viewBox="0 0 75 75" height="75" width="75">
<g clip-path="url(#clip0_11_50)">
<mask height="75" width="75" y="0" x="0" maskUnits="userSpaceOnUse" style="mask-type:luminance" id="mask0_11_50">
<path fill="white" d="M75 0H0V75H75V0Z"></path>
</mask>
<g mask="url(#mask0_11_50)">
<path stroke-width="2" stroke="#042436" fill="#042436" d="M48.7892 37.253C48.7892 43.154 44.0055 47.9377 38.1046 47.9377C32.2036 47.9377 27.4199 43.154 27.4199 37.253C27.4199 31.352 32.2036 26.5684 38.1046 26.5684C44.0055 26.5684 48.7892 31.352 48.7892 37.253Z"></path>
<path stroke-width="2" stroke="#042436" d="M45.8743 20.0283C45.8743 24.6981 42.2721 28.4033 37.9254 28.4033C33.5787 28.4033 29.9766 24.6981 29.9766 20.0283C29.9766 15.3586 33.5787 11.6533 37.9254 11.6533C42.2721 11.6533 45.8743 15.3586 45.8743 20.0283Z"></path>
<path stroke-width="2" stroke="#042436" d="M37.5 62.4941C42.1254 62.4941 45.875 58.7445 45.875 54.1191C45.875 49.4938 42.1254 45.7441 37.5 45.7441C32.8746 45.7441 29.125 49.4938 29.125 54.1191C29.125 58.7445 32.8746 62.4941 37.5 62.4941Z"></path>
<path stroke-width="2" stroke="#042436" d="M45.8205 32.2466C48.1016 36.1976 53.1538 37.5513 57.1048 35.2702C61.0558 32.9891 62.4095 27.937 60.1284 23.986C57.8473 20.035 52.7951 18.6812 48.8441 20.9624C44.8931 23.2435 43.5394 28.2956 45.8205 32.2466Z"></path>
<path stroke-width="2" stroke="#042436" d="M15.7228 49.2246C18.004 53.1757 23.0561 54.5294 27.0071 52.2482C30.9581 49.9671 32.3118 44.915 30.0307 40.964C27.7496 37.013 22.6975 35.6593 18.7465 37.9404C14.7954 40.2215 13.4417 45.2736 15.7228 49.2246Z"></path>
<path stroke-width="2" stroke="#042436" d="M45.8217 40.9637C43.5406 44.9147 44.8943 49.9668 48.8453 52.248C52.7963 54.5291 57.8484 53.1754 60.1295 49.2243C62.4107 45.2733 61.0569 40.2212 57.1059 37.9401C53.1549 35.659 48.1028 37.0127 45.8217 40.9637Z"></path>
<path stroke-width="2" stroke="#042436" d="M15.7238 23.9857C13.4427 27.9367 14.7964 32.9888 18.7474 35.2699C22.6984 37.551 27.7506 36.1973 30.0317 32.2463C32.3128 28.2953 30.9591 23.2432 27.0081 20.9621C23.0571 18.6809 18.0049 20.0347 15.7238 23.9857Z"></path>
</g>
</g>
<defs>
<clipPath id="clip0_11_50">
<rect fill="white" height="75" width="75"></rect>
</clipPath>
</defs>
</svg>
