<svg xmlns="http://www.w3.org/2000/svg" fill="none" viewBox="0 0 100 100" height="100" width="100">
<g clip-path="url(#clip0_11_13)">
<path stroke-width="1.5873" stroke="#042436" d="M31.9601 52.9519C29.2868 49.8673 32.0458 44.1265 33.7594 41.6418H43.4557M31.9601 52.9519L39.6716 45.3648M31.9601 52.9519C33.411 54.626 36.1217 54.8464 39.6716 53.6341M43.4557 41.6418L45.807 39.3283M43.4557 41.6418L39.6716 45.3648M39.6716 45.3648V53.6341M39.6716 53.6341C41.5109 53.0059 43.5756 51.9931 45.807 50.5986M63.8341 21.5919C65.3764 24.5052 66.1476 32.5937 56.8938 41.6418C52.9512 45.4968 49.1877 48.4857 45.807 50.5986M63.8341 21.5919C61.6063 19.8783 54.6318 18.9701 44.5554 29.0464H56.2575M63.8341 21.5919L56.2575 29.0464M63.8341 21.5919L68.461 16.9651M45.807 50.5986V39.3283M56.2575 29.0464L49.9871 35.2156M49.9871 35.2156H37.6151M49.9871 35.2156L45.807 39.3283"></path>
<path stroke-width="1.5873" stroke="#042436" d="M49.8673 98.9411C76.97 98.9411 98.9411 76.97 98.9411 49.8673C98.9411 22.7646 76.97 0.793457 49.8673 0.793457C22.7646 0.793457 0.793457 22.7646 0.793457 49.8673C0.793457 76.97 22.7646 98.9411 49.8673 98.9411Z"></path>
<path stroke-width="1.5873" stroke="#042436" d="M19.5356 88.9389C19.5356 88.9389 31.5655 80.1992 49.6103 80.1992C67.6552 80.1992 79.6849 88.9389 79.6849 88.9389"></path>
<path stroke-width="1.5873" stroke="#042436" d="M29.3035 95.1079C29.3035 95.1079 37.4262 90.481 49.6103 90.481C61.7944 90.481 69.9171 95.1079 69.9171 95.1079"></path>
<path stroke-width="1.5873" stroke="#042436" d="M11.3101 81.2277C11.3101 81.2277 26.6302 70.4314 49.6104 70.4314C72.5905 70.4314 87.9103 81.2277 87.9103 81.2277"></path>
<path stroke-width="1.5873" stroke="#042436" d="M4.62671 70.4313C4.62671 70.4313 22.6201 59.6353 49.6103 59.6353C76.6003 59.6353 94.5935 70.4313 94.5935 70.4313"></path>
</g>
<defs>
<clipPath id="clip0_11_13">
<rect fill="white" height="100" width="100"></rect>
</clipPath>
</defs>
</svg>
