<svg xmlns="http://www.w3.org/2000/svg" fill="none" viewBox="0 0 100 100" height="100" width="100">
<g clip-path="url(#clip0_11_2)">
<path fill="#042436" d="M50.0001 19.5862L45.4895 27.3987H54.5108L50.0001 19.5862ZM50.0001 80.4109L54.5108 72.5984H45.4895L50.0001 80.4109ZM49.2189 26.6174V73.3797H50.7814V26.6174H49.2189Z"></path>
<path fill="#042436" d="M80.414 49.997L72.6015 45.4863V54.5076L80.414 49.997ZM19.5894 49.997L27.4019 54.5076V45.4863L19.5894 49.997ZM73.3828 49.2157H26.6206V50.7782H73.3828V49.2157Z"></path>
<path fill="#042436" d="M71.5024 71.5024L69.1674 62.7886L62.7886 69.1674L71.5024 71.5024ZM28.4927 28.4927L30.8275 37.2065L37.2065 30.8275L28.4927 28.4927ZM67.0827 65.978L34.0171 32.9121L32.9121 34.0171L65.978 67.0827L67.0827 65.978Z"></path>
<path fill="#042436" d="M28.4973 71.5024L37.2109 69.1674L30.8322 62.7886L28.4973 71.5024ZM71.5069 28.4927L62.7931 30.8275L69.1722 37.2065L71.5069 28.4927ZM34.0216 67.0827L67.0875 34.0171L65.9825 32.9121L32.9169 65.978L34.0216 67.0827Z"></path>
<path stroke-width="1.5625" stroke="#042436" d="M50 99.2188C77.1828 99.2188 99.2188 77.1828 99.2188 50C99.2188 22.8172 77.1828 0.78125 50 0.78125C22.8172 0.78125 0.78125 22.8172 0.78125 50C0.78125 77.1828 22.8172 99.2188 50 99.2188Z"></path>
</g>
<defs>
<clipPath id="clip0_11_2">
<rect fill="white" height="100" width="100"></rect>
</clipPath>
</defs>
</svg>
