<svg xmlns="http://www.w3.org/2000/svg" fill="none" viewBox="0 0 75 75" height="75" width="75">
<g clip-path="url(#clip0_11_34)">
<mask height="75" width="75" y="0" x="0" maskUnits="userSpaceOnUse" style="mask-type:luminance" id="mask0_11_34">
<path fill="white" d="M75 0H0V75H75V0Z"></path>
</mask>
<g mask="url(#mask0_11_34)">
<path stroke-width="2" stroke="#042436" fill="#042436" d="M37.5724 48.6116C43.474 48.6116 48.2581 43.8275 48.2581 37.9259C48.2581 32.0244 43.474 27.2402 37.5724 27.2402C31.6709 27.2402 26.8867 32.0244 26.8867 37.9259C26.8867 43.8275 31.6709 48.6116 37.5724 48.6116Z"></path>
<path stroke-width="2" stroke="#042436" d="M36.9258 21.9911V12.7842"></path>
<path stroke-width="2" stroke="#042436" d="M36.9258 63.0683V53.8613"></path>
<path stroke-width="2" stroke="#042436" d="M53.8613 36.9263H63.0683"></path>
<path stroke-width="2" stroke="#042436" d="M12.7852 36.9263H21.9921"></path>
<path stroke-width="2" stroke="#042436" d="M49.9004 48.4868L56.4106 54.9971"></path>
<path stroke-width="2" stroke="#042436" d="M20.8555 19.4409L27.3658 25.9512"></path>
<path stroke-width="2" stroke="#042436" d="M27.3658 49.9009L20.8555 56.4111"></path>
<path stroke-width="2" stroke="#042436" d="M56.4107 20.855L49.9004 27.3652"></path>
</g>
</g>
<defs>
<clipPath id="clip0_11_34">
<rect fill="white" height="75" width="75"></rect>
</clipPath>
</defs>
</svg>
