<svg xmlns="http://www.w3.org/2000/svg" fill="none" viewBox="0 0 734 432" height="432" width="734">
<path fill="black" d="M127.519 266.859C119.106 266.859 112.855 265.002 108.766 261.289C104.724 257.529 102.562 251.631 102.28 243.594C102.233 242.466 102.539 241.573 103.197 240.915C103.902 240.21 104.818 239.857 105.946 239.857C107.074 239.857 107.967 240.186 108.625 240.844C109.283 241.502 109.659 242.395 109.753 243.523C109.941 249.445 111.351 253.581 113.983 255.931C116.615 258.281 121.127 259.456 127.519 259.456H147.823C154.497 259.456 159.127 258.164 161.712 255.579C164.344 252.947 165.66 248.341 165.66 241.761C165.66 235.087 164.344 230.457 161.712 227.872C159.127 225.24 154.497 223.924 147.823 223.924H128.506C120.234 223.924 114.171 221.997 110.317 218.143C106.463 214.289 104.536 208.25 104.536 200.025C104.536 191.8 106.44 185.76 110.247 181.906C114.101 178.052 120.14 176.125 128.365 176.125H148.105C156.001 176.125 161.853 177.888 165.66 181.413C169.514 184.938 171.582 190.484 171.864 198.051C171.958 199.179 171.652 200.095 170.947 200.8C170.289 201.458 169.373 201.787 168.198 201.787C167.117 201.787 166.247 201.458 165.589 200.8C164.931 200.142 164.555 199.249 164.461 198.121C164.273 192.716 162.957 188.933 160.513 186.771C158.069 184.609 153.933 183.528 148.105 183.528H128.365C122.208 183.528 117.931 184.75 115.534 187.194C113.137 189.591 111.939 193.868 111.939 200.025C111.939 206.182 113.137 210.482 115.534 212.926C117.978 215.323 122.302 216.522 128.506 216.522H147.823C156.565 216.522 162.957 218.566 166.999 222.655C171.041 226.697 173.062 233.066 173.062 241.761C173.062 250.456 171.041 256.824 166.999 260.866C162.957 264.861 156.565 266.859 147.823 266.859H127.519ZM203.04 236.544V241.69C203.04 248.317 204.356 252.97 206.988 255.649C209.667 258.281 214.367 259.597 221.088 259.597H232.65C238.572 259.597 242.872 258.845 245.551 257.341C248.277 255.79 249.899 253.135 250.416 249.375C250.604 248.2 250.98 247.307 251.544 246.696C252.155 246.085 253.071 245.779 254.293 245.779C255.515 245.779 256.432 246.132 257.043 246.837C257.701 247.495 257.959 248.435 257.818 249.657C257.207 255.579 254.834 259.95 250.698 262.77C246.562 265.59 240.546 267 232.65 267H221.088C212.299 267 205.86 264.979 201.771 260.937C197.682 256.848 195.637 250.432 195.637 241.69V225.757C195.637 216.874 197.682 210.412 201.771 206.37C205.86 202.281 212.299 200.283 221.088 200.377H232.65C241.439 200.377 247.854 202.422 251.896 206.511C255.985 210.553 258.03 216.968 258.03 225.757V232.807C258.03 235.298 256.808 236.544 254.364 236.544H203.04ZM221.088 207.78C214.367 207.686 209.667 208.978 206.988 211.657C204.356 214.289 203.04 218.989 203.04 225.757V229.141H250.627V225.757C250.627 219.036 249.311 214.36 246.679 211.728C244.047 209.096 239.371 207.78 232.65 207.78H221.088ZM286.235 267C283.744 267 282.499 265.754 282.499 263.263V204.043C282.499 201.599 283.744 200.377 286.235 200.377C288.679 200.377 289.901 201.599 289.901 204.043V210.811C294.366 203.855 302.45 200.377 314.153 200.377H318.101C326.89 200.377 333.306 202.422 337.348 206.511C341.437 210.553 343.481 216.968 343.481 225.757V263.263C343.481 265.754 342.259 267 339.815 267C337.324 267 336.079 265.754 336.079 263.263V225.757C336.079 219.036 334.739 214.36 332.06 211.728C329.428 209.096 324.775 207.78 318.101 207.78H314.153C306.868 207.78 301.134 208.931 296.951 211.234C292.768 213.537 290.418 217.133 289.901 222.021V263.263C289.901 265.754 288.679 267 286.235 267ZM386.818 267C380.849 267 376.126 265.778 372.648 263.334C369.17 260.843 366.937 257.13 365.95 252.195C365.621 250.221 365.997 248.67 367.078 247.542C368.206 246.414 369.757 245.85 371.731 245.85C373.658 245.85 375.045 246.343 375.891 247.33C376.784 248.27 377.512 249.704 378.076 251.631C378.64 253.041 379.58 253.981 380.896 254.451C382.259 254.921 384.233 255.156 386.818 255.156H409.942C413.608 255.156 416.076 254.568 417.345 253.393C418.614 252.171 419.248 249.657 419.248 245.85C419.248 242.09 418.614 239.599 417.345 238.377C416.076 237.155 413.608 236.544 409.942 236.544H387.241C380.473 236.544 375.374 234.828 371.943 231.398C368.512 227.966 366.796 222.867 366.796 216.099C366.796 209.19 368.465 204.043 371.802 200.659C375.186 197.228 380.332 195.513 387.241 195.513H409.237C420.282 195.513 426.815 200.166 428.836 209.472C429.212 211.446 428.836 212.973 427.708 214.054C426.58 215.135 425.029 215.676 423.055 215.676C421.222 215.676 419.859 215.206 418.966 214.266C418.073 213.279 417.368 211.916 416.851 210.177C416.287 209.049 415.418 208.297 414.243 207.921C413.115 207.545 411.446 207.357 409.237 207.357H387.241C383.669 207.357 381.343 207.897 380.262 208.978C379.181 210.059 378.64 212.433 378.64 216.099C378.64 219.483 379.204 221.762 380.332 222.938C381.507 224.112 383.81 224.7 387.241 224.7H409.942C416.992 224.7 422.28 226.462 425.805 229.987C429.33 233.512 431.092 238.8 431.092 245.85C431.092 252.947 429.33 258.258 425.805 261.783C422.28 265.261 416.992 267 409.942 267H386.818ZM462.158 267C458.21 267 456.236 265.026 456.236 261.078V173.658C456.236 169.71 458.21 167.736 462.158 167.736C466.106 167.736 468.08 169.71 468.08 173.658V226.603L501.638 197.769C504.646 195.184 507.419 195.372 509.957 198.333C512.542 201.341 512.354 204.114 509.393 206.652L483.661 228.859L508.265 256.848C510.897 259.903 510.756 262.676 507.842 265.167C504.834 267.752 502.014 267.564 499.382 264.603L474.637 236.685L468.08 242.325V261.078C468.08 265.026 466.106 267 462.158 267ZM531.786 183.951C527.321 183.951 525.088 181.695 525.088 177.183V173.023C525.088 168.605 527.321 166.396 531.786 166.396H535.875C540.152 166.396 542.29 168.605 542.29 173.023V177.183C542.29 181.695 540.152 183.951 535.875 183.951H531.786ZM533.76 267C529.812 267 527.838 265.026 527.838 261.078V201.435C527.838 197.487 529.812 195.513 533.76 195.513C537.708 195.513 539.682 197.487 539.682 201.435V261.078C539.682 265.026 537.708 267 533.76 267ZM574.931 267C570.983 267 569.009 265.026 569.009 261.078V201.435C569.009 197.487 570.983 195.513 574.931 195.513C578.879 195.513 580.853 197.487 580.853 201.435V203.761C585.835 198.262 593.167 195.513 602.849 195.513H606.797C616.197 195.513 623.153 197.769 627.665 202.281C632.177 206.793 634.433 213.749 634.433 223.149V261.078C634.433 265.026 632.459 267 628.511 267C624.563 267 622.589 265.026 622.589 261.078V223.149C622.589 216.992 621.461 212.832 619.205 210.67C616.996 208.461 612.86 207.357 606.797 207.357H602.849C597.209 207.357 592.297 208.015 588.114 209.331C583.931 210.6 581.511 212.621 580.853 215.394V261.078C580.853 265.026 578.879 267 574.931 267Z"></path>
</svg>
