<svg xmlns="http://www.w3.org/2000/svg" fill="none" viewBox="0 0 644 432" height="432" width="644">
<path fill="black" d="M114.426 205.312H111.473C110.98 203.555 110.488 202.008 109.996 200.672C109.574 199.336 109.047 198.141 108.414 197.086C107.852 195.961 107.219 194.977 106.516 194.133C105.812 193.219 105.004 192.27 104.09 191.285C99.8711 186.855 94.9492 184.641 89.3242 184.641C85.5977 184.641 82.5742 185.625 80.2539 187.594C78.0039 189.562 76.8789 192.234 76.8789 195.609C76.8789 198.914 78.25 202.008 80.9922 204.891C83.7344 207.773 88.2344 210.938 94.4922 214.383C102.508 218.742 108.273 222.996 111.789 227.145C115.375 231.293 117.168 235.828 117.168 240.75C117.168 243.844 116.535 246.727 115.27 249.398C114.004 252.07 112.281 254.391 110.102 256.359C107.922 258.328 105.32 259.875 102.297 261C99.2734 262.125 96.0391 262.688 92.5938 262.688C90.1328 262.688 87.707 262.477 85.3164 262.055C82.9258 261.633 80.6055 260.93 78.3555 259.945C77.1602 259.523 76.0703 259.207 75.0859 258.996C74.1016 258.715 73.293 258.574 72.6602 258.574C71.7461 258.574 70.9727 258.961 70.3398 259.734C69.707 260.508 69.3555 261.457 69.2852 262.582H66.6484L63.0625 237.059H65.8047C68.8281 244.441 72.2734 249.855 76.1406 253.301C80.0078 256.676 84.6836 258.363 90.168 258.363C94.5977 258.363 98.1484 257.133 100.82 254.672C103.562 252.211 104.934 248.977 104.934 244.969C104.934 243.422 104.758 242.051 104.406 240.855C104.125 239.66 103.703 238.641 103.141 237.797C101.734 235.547 99.4844 233.227 96.3906 230.836C93.3672 228.445 89.7109 226.055 85.4219 223.664C82.0469 221.906 79.1641 220.148 76.7734 218.391C74.3828 216.633 72.4141 214.805 70.8672 212.906C69.3906 211.008 68.3008 209.039 67.5977 207C66.8945 204.961 66.543 202.746 66.543 200.355C66.543 193.676 68.8633 188.473 73.5039 184.746C75.4727 183.129 77.6523 181.898 80.043 181.055C82.4336 180.141 84.7891 179.684 87.1094 179.684C89.2188 179.684 91.3281 179.93 93.4375 180.422C95.6172 180.844 97.832 181.477 100.082 182.32C101.207 182.812 102.227 183.164 103.141 183.375C104.055 183.586 104.828 183.691 105.461 183.691C107.43 183.691 108.695 182.355 109.258 179.684H111.789L114.426 205.312ZM125.816 184.008L129.402 183.164C131.23 182.672 132.812 182.25 134.148 181.898C135.484 181.477 136.715 181.09 137.84 180.738C139.035 180.387 140.125 180.07 141.109 179.789C142.164 179.438 143.289 179.086 144.484 178.734L144.906 179.051V229.676L161.465 214.91C163.293 213.223 164.207 211.781 164.207 210.586C164.207 209.883 163.785 209.391 162.941 209.109C162.098 208.828 160.516 208.617 158.195 208.477V206.789H182.77V208.688C180.871 208.617 179.148 208.758 177.602 209.109C176.055 209.391 174.367 210.059 172.539 211.113C170.711 212.168 168.566 213.715 166.105 215.754C163.645 217.723 160.516 220.395 156.719 223.77L153.238 226.934L171.801 250.453C174.262 253.547 176.512 255.762 178.551 257.098C180.66 258.363 183.051 259.102 185.723 259.312V261H159.566V259.312H161.781C162.555 259.312 163.152 259.137 163.574 258.785C164.066 258.434 164.312 257.977 164.312 257.414C164.312 257.062 164.207 256.711 163.996 256.359C163.855 255.938 163.504 255.445 162.941 254.883C162.52 254.32 162.273 253.969 162.203 253.828L161.781 253.301L144.906 230.836V252.984C144.906 255.023 145.398 256.535 146.383 257.52C147.438 258.434 149.16 258.961 151.551 259.102L153.977 259.312V261H125.816V259.312C127.926 258.961 129.578 258.645 130.773 258.363C132.039 258.012 132.953 257.59 133.516 257.098C134.078 256.535 134.43 255.797 134.57 254.883C134.711 253.969 134.781 252.738 134.781 251.191V193.078C134.781 190.195 134.43 188.262 133.727 187.277C133.023 186.293 131.652 185.801 129.613 185.801C129.051 185.801 128.453 185.836 127.82 185.906C127.258 185.906 126.59 185.941 125.816 186.012V184.008ZM206.711 205.945V248.766C206.711 250.945 206.781 252.703 206.922 254.039C207.133 255.305 207.555 256.324 208.188 257.098C208.82 257.801 209.699 258.293 210.824 258.574C212.02 258.855 213.637 259.102 215.676 259.312V261H187.094V259.312C189.203 259.172 190.855 258.961 192.051 258.68C193.316 258.328 194.266 257.801 194.898 257.098C195.602 256.324 196.059 255.305 196.27 254.039C196.48 252.703 196.586 250.945 196.586 248.766V220.816C196.586 218.145 196.27 216.281 195.637 215.227C195.074 214.102 194.09 213.539 192.684 213.539C192.121 213.539 191.453 213.574 190.68 213.645C189.977 213.715 189.238 213.82 188.465 213.961L187.621 214.066V212.273L206.184 205.629L206.711 205.945ZM200.699 178.734C202.387 178.734 203.828 179.367 205.023 180.633C206.219 181.828 206.816 183.27 206.816 184.957C206.816 186.715 206.219 188.191 205.023 189.387C203.898 190.512 202.422 191.074 200.594 191.074C198.836 191.074 197.395 190.512 196.27 189.387C195.145 188.191 194.582 186.715 194.582 184.957C194.582 183.27 195.18 181.828 196.375 180.633C197.57 179.367 199.012 178.734 200.699 178.734ZM220.633 211.008C223.938 210.094 226.785 209.25 229.176 208.477C231.637 207.703 234.309 206.754 237.191 205.629L238.141 205.84V215.438C240.18 213.539 241.973 211.957 243.52 210.691C245.066 209.426 246.473 208.441 247.738 207.738C249.074 206.965 250.34 206.438 251.535 206.156C252.801 205.805 254.137 205.629 255.543 205.629C259.973 205.629 263.453 207.211 265.984 210.375C268.516 213.539 269.781 217.969 269.781 223.664V251.297C269.781 254.18 270.273 256.148 271.258 257.203C272.242 258.258 274.176 258.961 277.059 259.312V261H252.062V259.312C253.539 259.172 254.77 258.926 255.754 258.574C256.738 258.223 257.512 257.66 258.074 256.887C258.707 256.113 259.129 255.094 259.34 253.828C259.551 252.562 259.656 250.98 259.656 249.082V223.875C259.656 216.141 256.738 212.273 250.902 212.273C249.918 212.273 248.969 212.379 248.055 212.59C247.141 212.801 246.191 213.152 245.207 213.645C244.293 214.137 243.273 214.84 242.148 215.754C241.094 216.668 239.828 217.793 238.352 219.129V252.984C238.352 255.164 238.914 256.711 240.039 257.625C241.164 258.469 243.273 259.031 246.367 259.312V261H220.844V259.312C222.391 259.172 223.621 258.961 224.535 258.68C225.52 258.328 226.293 257.801 226.855 257.098C227.418 256.395 227.805 255.516 228.016 254.461C228.227 253.336 228.332 251.93 228.332 250.242V220.289C228.332 217.336 228.016 215.332 227.383 214.277C226.75 213.152 225.59 212.59 223.902 212.59C222.637 212.59 221.547 212.766 220.633 213.117V211.008ZM335.383 205.312H332.43C331.938 203.555 331.445 202.008 330.953 200.672C330.531 199.336 330.004 198.141 329.371 197.086C328.809 195.961 328.176 194.977 327.473 194.133C326.77 193.219 325.961 192.27 325.047 191.285C320.828 186.855 315.906 184.641 310.281 184.641C306.555 184.641 303.531 185.625 301.211 187.594C298.961 189.562 297.836 192.234 297.836 195.609C297.836 198.914 299.207 202.008 301.949 204.891C304.691 207.773 309.191 210.938 315.449 214.383C323.465 218.742 329.23 222.996 332.746 227.145C336.332 231.293 338.125 235.828 338.125 240.75C338.125 243.844 337.492 246.727 336.227 249.398C334.961 252.07 333.238 254.391 331.059 256.359C328.879 258.328 326.277 259.875 323.254 261C320.23 262.125 316.996 262.688 313.551 262.688C311.09 262.688 308.664 262.477 306.273 262.055C303.883 261.633 301.562 260.93 299.312 259.945C298.117 259.523 297.027 259.207 296.043 258.996C295.059 258.715 294.25 258.574 293.617 258.574C292.703 258.574 291.93 258.961 291.297 259.734C290.664 260.508 290.312 261.457 290.242 262.582H287.605L284.02 237.059H286.762C289.785 244.441 293.23 249.855 297.098 253.301C300.965 256.676 305.641 258.363 311.125 258.363C315.555 258.363 319.105 257.133 321.777 254.672C324.52 252.211 325.891 248.977 325.891 244.969C325.891 243.422 325.715 242.051 325.363 240.855C325.082 239.66 324.66 238.641 324.098 237.797C322.691 235.547 320.441 233.227 317.348 230.836C314.324 228.445 310.668 226.055 306.379 223.664C303.004 221.906 300.121 220.148 297.73 218.391C295.34 216.633 293.371 214.805 291.824 212.906C290.348 211.008 289.258 209.039 288.555 207C287.852 204.961 287.5 202.746 287.5 200.355C287.5 193.676 289.82 188.473 294.461 184.746C296.43 183.129 298.609 181.898 301 181.055C303.391 180.141 305.746 179.684 308.066 179.684C310.176 179.684 312.285 179.93 314.395 180.422C316.574 180.844 318.789 181.477 321.039 182.32C322.164 182.812 323.184 183.164 324.098 183.375C325.012 183.586 325.785 183.691 326.418 183.691C328.387 183.691 329.652 182.355 330.215 179.684H332.746L335.383 205.312ZM390.227 248.344C390.227 251.016 390.473 252.879 390.965 253.934C391.457 254.918 392.406 255.41 393.812 255.41C395.43 255.41 397.188 254.672 399.086 253.195V256.254C397.047 258.504 395.254 260.051 393.707 260.895C392.16 261.738 390.367 262.16 388.328 262.16C385.867 262.16 384.039 261.492 382.844 260.156C381.719 258.75 381.016 256.43 380.734 253.195C377.078 256.359 373.879 258.645 371.137 260.051C368.395 261.457 365.723 262.16 363.121 262.16C359.324 262.16 356.23 260.965 353.84 258.574C351.52 256.184 350.359 253.09 350.359 249.293C350.359 247.395 350.711 245.496 351.414 243.598C352.188 241.629 353.277 240.047 354.684 238.852C355.949 237.727 357.109 236.777 358.164 236.004C359.289 235.16 360.73 234.316 362.488 233.473C364.246 232.559 366.531 231.539 369.344 230.414C372.156 229.289 375.883 227.777 380.523 225.879V218.18C380.523 214.875 379.715 212.379 378.098 210.691C376.551 209.004 374.301 208.16 371.348 208.16C368.887 208.16 366.812 208.758 365.125 209.953C363.508 211.078 362.699 212.449 362.699 214.066C362.699 214.699 362.77 215.508 362.91 216.492C363.121 217.477 363.227 218.285 363.227 218.918C363.227 220.324 362.664 221.52 361.539 222.504C360.484 223.488 359.254 223.98 357.848 223.98C356.441 223.98 355.211 223.488 354.156 222.504C353.172 221.449 352.68 220.219 352.68 218.812C352.68 217.266 353.102 215.684 353.945 214.066C354.859 212.449 356.09 211.008 357.637 209.742C359.254 208.336 361.398 207.246 364.07 206.473C366.812 205.699 369.766 205.312 372.93 205.312C376.586 205.312 379.645 205.945 382.105 207.211C384.637 208.406 386.57 210.094 387.906 212.273C388.75 213.68 389.348 215.332 389.699 217.23C390.051 219.059 390.227 221.555 390.227 224.719V248.344ZM380.523 228.832C376.867 230.168 373.738 231.469 371.137 232.734C368.605 233.93 366.531 235.195 364.914 236.531C363.367 237.797 362.242 239.168 361.539 240.645C360.836 242.121 360.484 243.738 360.484 245.496V246.023C360.484 247.289 360.695 248.52 361.117 249.715C361.539 250.84 362.102 251.824 362.805 252.668C363.578 253.512 364.457 254.18 365.441 254.672C366.426 255.164 367.445 255.41 368.5 255.41C369.766 255.41 371.172 255.164 372.719 254.672C374.336 254.109 375.848 253.441 377.254 252.668C378.66 251.895 379.539 251.086 379.891 250.242C380.312 249.398 380.523 248.062 380.523 246.234V228.832ZM456.777 208.688C455.863 208.758 455.09 208.898 454.457 209.109C453.895 209.32 453.332 209.742 452.77 210.375C452.277 211.008 451.715 211.957 451.082 213.223C450.52 214.418 449.816 216.035 448.973 218.074L433.574 256.781C432.66 258.961 431.957 260.473 431.465 261.316C430.973 262.23 430.551 262.688 430.199 262.688C429.848 262.688 429.461 262.441 429.039 261.949C428.688 261.527 428.336 260.719 427.984 259.523C427.844 259.242 427.703 258.926 427.562 258.574C427.422 258.152 427.246 257.625 427.035 256.992L412.586 222.504C411.18 219.41 410.055 216.949 409.211 215.121C408.367 213.293 407.559 211.922 406.785 211.008C406.082 210.094 405.344 209.496 404.57 209.215C403.797 208.934 402.812 208.758 401.617 208.688V206.789H425.137V208.688C423.168 208.828 421.762 209.145 420.918 209.637C420.145 210.129 419.758 210.867 419.758 211.852C419.758 212.484 419.828 213.223 419.969 214.066C420.18 214.84 420.461 215.648 420.812 216.492L433.047 247.289L444.965 216.07C445.246 215.508 445.422 214.91 445.492 214.277C445.562 213.645 445.598 213.047 445.598 212.484C445.598 210.234 443.77 208.969 440.113 208.688V206.789H456.777V208.688ZM517 208.688C516.086 208.758 515.312 208.898 514.68 209.109C514.117 209.32 513.555 209.742 512.992 210.375C512.5 211.008 511.938 211.957 511.305 213.223C510.742 214.418 510.039 216.035 509.195 218.074L493.797 256.781C492.883 258.961 492.18 260.473 491.688 261.316C491.195 262.23 490.773 262.688 490.422 262.688C490.07 262.688 489.684 262.441 489.262 261.949C488.91 261.527 488.559 260.719 488.207 259.523C488.066 259.242 487.926 258.926 487.785 258.574C487.645 258.152 487.469 257.625 487.258 256.992L472.809 222.504C471.402 219.41 470.277 216.949 469.434 215.121C468.59 213.293 467.781 211.922 467.008 211.008C466.305 210.094 465.566 209.496 464.793 209.215C464.02 208.934 463.035 208.758 461.84 208.688V206.789H485.359V208.688C483.391 208.828 481.984 209.145 481.141 209.637C480.367 210.129 479.98 210.867 479.98 211.852C479.98 212.484 480.051 213.223 480.191 214.066C480.402 214.84 480.684 215.648 481.035 216.492L493.27 247.289L505.188 216.07C505.469 215.508 505.645 214.91 505.715 214.277C505.785 213.645 505.82 213.047 505.82 212.484C505.82 210.234 503.992 208.969 500.336 208.688V206.789H517V208.688ZM577.012 208.688C575.605 208.828 574.445 209.285 573.531 210.059C572.688 210.832 571.879 212.168 571.105 214.066L552.648 263.215C550.961 267.574 549.344 271.266 547.797 274.289C546.25 277.383 544.668 279.879 543.051 281.777C541.504 283.676 539.852 285.047 538.094 285.891C536.336 286.805 534.402 287.262 532.293 287.262C529.691 287.262 527.547 286.594 525.859 285.258C524.242 283.992 523.434 282.34 523.434 280.301C523.434 278.754 523.926 277.488 524.91 276.504C525.895 275.59 527.125 275.133 528.602 275.133C529.586 275.133 530.605 275.203 531.66 275.344C532.715 275.555 533.77 275.871 534.824 276.293C535.527 276.645 536.125 276.855 536.617 276.926C537.109 276.996 537.531 277.031 537.883 277.031C538.797 277.031 539.816 276.539 540.941 275.555C542.066 274.641 543.086 273.41 544 271.863C544.492 270.949 545.02 269.824 545.582 268.488C546.145 267.223 546.672 265.957 547.164 264.691C547.656 263.426 548.043 262.23 548.324 261.105C548.676 260.051 548.852 259.312 548.852 258.891C548.852 257.906 548.359 256.359 547.375 254.25C546.461 252.07 545.16 249.504 543.473 246.551C543.121 246.059 542.805 245.531 542.523 244.969C542.242 244.406 541.996 243.738 541.785 242.965L541.363 242.016L527.652 212.379C526.809 210.34 524.77 209.039 521.535 208.477V206.789H546.32V208.688C543.719 208.828 541.891 209.145 540.836 209.637C539.852 210.059 539.359 210.797 539.359 211.852C539.359 212.625 539.43 213.398 539.57 214.172C539.781 214.875 540.133 215.648 540.625 216.492L554.441 246.867L566.043 213.645C566.465 212.941 566.676 212.309 566.676 211.746C566.676 210.762 566.148 210.023 565.094 209.531C564.039 208.969 562.598 208.688 560.77 208.688V206.789H577.012V208.688Z"></path>
</svg>
