<svg xmlns="http://www.w3.org/2000/svg" fill="none" viewBox="0 0 1030 432" height="432" width="1030">
<path fill="black" d="M59.1289 250C56.668 250 55.4375 248.682 55.4375 246.045V178.334C55.4375 175.697 56.668 174.379 59.1289 174.379H77.5332C93.7051 174.379 104.639 177.648 110.334 184.188C116.064 190.727 118.93 200.025 118.93 212.084C118.93 224.143 116.064 233.477 110.334 240.086C104.639 246.695 93.7051 250 77.5332 250H59.1289ZM70.8359 236.922H76.5312C87.4297 236.922 94.4785 234.9 97.6777 230.857C100.877 226.779 102.477 220.521 102.477 212.084C102.477 203.646 100.877 197.424 97.6777 193.416C94.4785 189.373 87.4297 187.352 76.5312 187.352H70.8359V236.922ZM135.594 250C133.133 250 131.902 248.682 131.902 246.045V178.334C131.902 175.697 133.133 174.379 135.594 174.379H180.84C183.477 174.379 184.795 175.521 184.795 177.807V184.029C184.795 186.314 183.477 187.457 180.84 187.457H147.301V204.227H178.045C180.682 204.227 182 205.369 182 207.654V213.877C182 216.162 180.682 217.305 178.045 217.305H147.301V236.922H182.527C185.164 236.922 186.482 238.064 186.482 240.35V246.572C186.482 248.857 185.164 250 182.527 250H135.594ZM203.094 250C200.633 250 199.402 248.682 199.402 246.045V178.334C199.402 175.697 200.633 174.379 203.094 174.379H227.51C238.373 174.379 246.301 176.066 251.293 179.441C256.285 182.781 258.781 188.23 258.781 195.789C258.781 201.414 256.76 205.896 252.717 209.236C248.674 212.576 243.541 214.791 237.318 215.881V215.986C240.693 217.252 243.242 219.01 244.965 221.26C246.688 223.51 248.094 225.479 249.184 227.166L260.785 245.465C262.719 248.488 262.051 250 258.781 250H249.605C247.672 250 246.09 248.963 244.859 246.889L234.207 229.117C233.047 227.219 230.92 225.145 227.826 222.895C224.768 220.609 221.727 219.467 218.703 219.467H214.801V246.045C214.801 248.682 213.57 250 211.109 250H203.094ZM214.801 206.389H224.24C231.271 206.389 236.264 205.598 239.217 204.016C242.205 202.398 243.699 199.85 243.699 196.369C243.699 192.572 242.258 190.111 239.375 188.986C236.527 187.826 232.326 187.246 226.771 187.246H214.801V206.389ZM278.398 250C275.938 250 274.707 248.682 274.707 246.045V178.334C274.707 175.697 275.938 174.379 278.398 174.379H293.691C295.73 174.379 297.189 175.785 298.068 178.598L312.359 224.846C312.992 226.85 313.432 228.502 313.678 229.803C313.924 231.068 314.135 232.58 314.311 234.338H314.627C314.803 232.58 315.014 231.068 315.26 229.803C315.506 228.502 315.945 226.85 316.578 224.846L330.869 178.598C331.748 175.785 333.207 174.379 335.246 174.379H350.539C353 174.379 354.23 175.697 354.23 178.334V246.045C354.23 248.682 353 250 350.539 250H342.523C340.062 250 338.832 248.682 338.832 246.045V202.486C338.832 200.377 338.92 198.268 339.096 196.158H338.727L323.486 245.729C322.607 248.576 321.096 250 318.951 250H309.986C307.842 250 306.33 248.576 305.451 245.729L290.211 196.158H289.842C290.018 198.268 290.105 200.377 290.105 202.486V246.045C290.105 248.682 288.875 250 286.414 250H278.398ZM368.732 250C366.201 250 365.375 248.84 366.254 246.52L392.094 178.65C393.184 175.803 394.836 174.379 397.051 174.379H404.434C406.648 174.379 408.301 175.803 409.391 178.65L435.23 246.52C436.109 248.84 435.283 250 432.752 250H424.367C422.047 250 420.43 248.787 419.516 246.361L414.137 232.176H387.348L381.969 246.361C381.055 248.787 379.438 250 377.117 250H368.732ZM392.252 219.098H409.232L402.746 202.328C401.973 200.359 401.498 198.936 401.322 198.057C401.182 197.143 401.023 195.807 400.848 194.049H400.637C400.461 195.807 400.285 197.143 400.109 198.057C399.969 198.936 399.512 200.359 398.738 202.328L392.252 219.098ZM485.223 250C482.762 250 481.531 248.682 481.531 246.045V178.334C481.531 175.697 482.762 174.379 485.223 174.379H503.627C519.799 174.379 530.732 177.648 536.428 184.188C542.158 190.727 545.023 200.025 545.023 212.084C545.023 224.143 542.158 233.477 536.428 240.086C530.732 246.695 519.799 250 503.627 250H485.223ZM496.93 236.922H502.625C513.523 236.922 520.572 234.9 523.771 230.857C526.971 226.779 528.57 220.521 528.57 212.084C528.57 203.646 526.971 197.424 523.771 193.416C520.572 189.373 513.523 187.352 502.625 187.352H496.93V236.922ZM554.938 178.914C553.145 175.891 553.971 174.379 557.416 174.379H566.645C568.473 174.379 570.09 175.592 571.496 178.018L582.729 197.582C583.045 198.109 583.977 199.762 585.523 202.539C587.07 205.281 587.967 207.953 588.213 210.555H588.424C588.67 207.953 589.566 205.281 591.113 202.539C592.66 199.762 593.592 198.109 593.908 197.582L605.141 178.018C606.547 175.592 608.164 174.379 609.992 174.379H619.221C622.666 174.379 623.492 175.891 621.699 178.914L596.018 222.314V247.1C596.018 249.033 594.787 250 592.326 250H584.311C581.85 250 580.619 249.033 580.619 247.1V222.314L554.938 178.914ZM633.828 250C631.367 250 630.137 248.682 630.137 246.045V178.334C630.137 175.697 631.367 174.379 633.828 174.379H641.633C644.656 174.379 646.941 175.609 648.488 178.07L675.383 221.26H675.752C675.576 219.15 675.488 217.041 675.488 214.932V178.334C675.488 175.697 676.719 174.379 679.18 174.379H687.195C689.656 174.379 690.887 175.697 690.887 178.334V246.045C690.887 248.682 689.656 250 687.195 250H679.918C676.895 250 674.609 248.77 673.062 246.309L645.641 202.328H645.271C645.447 204.438 645.535 206.547 645.535 208.656V246.045C645.535 248.682 644.305 250 641.844 250H633.828ZM705.389 250C702.857 250 702.031 248.84 702.91 246.52L728.75 178.65C729.84 175.803 731.492 174.379 733.707 174.379H741.09C743.305 174.379 744.957 175.803 746.047 178.65L771.887 246.52C772.766 248.84 771.939 250 769.408 250H761.023C758.703 250 757.086 248.787 756.172 246.361L750.793 232.176H724.004L718.625 246.361C717.711 248.787 716.094 250 713.773 250H705.389ZM728.908 219.098H745.889L739.402 202.328C738.629 200.359 738.154 198.936 737.979 198.057C737.838 197.143 737.68 195.807 737.504 194.049H737.293C737.117 195.807 736.941 197.143 736.766 198.057C736.625 198.936 736.168 200.359 735.395 202.328L728.908 219.098ZM782.17 244.357C779.99 242.705 779.463 241.035 780.588 239.348L784.648 233.23C785.984 231.227 787.936 231.121 790.502 232.914C792.471 234.285 795.037 235.709 798.201 237.186C801.4 238.627 804.758 239.348 808.273 239.348C810.734 239.348 813.107 239.066 815.393 238.504C817.678 237.941 819.418 236.852 820.613 235.234C821.809 233.617 822.406 231.701 822.406 229.486C822.406 227.904 822.143 226.516 821.615 225.32C821.088 224.125 820.227 223.141 819.031 222.367C817.836 221.594 816.605 220.943 815.34 220.416C813.125 219.502 810.33 218.605 806.955 217.727C803.615 216.812 800.311 215.723 797.041 214.457C794.123 213.332 791.451 211.785 789.025 209.816C786.6 207.848 784.719 205.633 783.383 203.172C782.047 200.711 781.379 197.424 781.379 193.311C781.379 188.424 782.961 184.24 786.125 180.76C789.289 177.279 792.928 175.047 797.041 174.062C801.154 173.078 805.303 172.586 809.486 172.586C813.635 172.586 817.906 173.219 822.301 174.484C826.73 175.75 830.07 177.332 832.32 179.23C834.535 181.094 835.08 182.781 833.955 184.293L829.684 190.041C828.242 192.01 826.309 192.168 823.883 190.516C822.336 189.461 820.209 188.283 817.502 186.982C814.83 185.682 812.035 185.031 809.117 185.031C807.043 185.031 805.127 185.207 803.369 185.559C801.646 185.91 800.117 186.754 798.781 188.09C797.445 189.426 796.777 191.078 796.777 193.047C796.777 194.945 797.27 196.492 798.254 197.688C799.238 198.848 800.328 199.727 801.523 200.324C802.719 200.887 803.932 201.361 805.162 201.748C808.959 202.979 812.352 204.068 815.34 205.018C818.328 205.932 821.088 206.951 823.619 208.076C827.135 209.658 829.824 211.24 831.688 212.822C833.551 214.404 835.08 216.566 836.275 219.309C837.506 222.051 838.121 225.32 838.121 229.117C838.121 234.742 836.328 239.4 832.742 243.092C829.156 246.748 825.166 249.104 820.771 250.158C816.412 251.248 812.158 251.793 808.01 251.793C801.893 251.793 796.918 251.195 793.086 250C789.254 248.84 785.615 246.959 782.17 244.357ZM847.561 187.879C844.924 187.879 843.605 186.736 843.605 184.451V177.807C843.605 175.521 844.924 174.379 847.561 174.379H901.771C904.408 174.379 905.727 175.521 905.727 177.807V184.451C905.727 186.736 904.408 187.879 901.771 187.879H882.365V247.1C882.365 249.033 881.486 250 879.729 250H869.604C867.846 250 866.967 249.033 866.967 247.1V187.879H847.561ZM912.898 178.914C911.105 175.891 911.932 174.379 915.377 174.379H924.605C926.434 174.379 928.051 175.592 929.457 178.018L940.689 197.582C941.006 198.109 941.938 199.762 943.484 202.539C945.031 205.281 945.928 207.953 946.174 210.555H946.385C946.631 207.953 947.527 205.281 949.074 202.539C950.621 199.762 951.553 198.109 951.869 197.582L963.102 178.018C964.508 175.592 966.125 174.379 967.953 174.379H977.182C980.627 174.379 981.453 175.891 979.66 178.914L953.979 222.314V247.1C953.979 249.033 952.748 250 950.287 250H942.271C939.811 250 938.58 249.033 938.58 247.1V222.314L912.898 178.914Z"></path>
</svg>
