<svg xmlns="http://www.w3.org/2000/svg" fill="none" viewBox="0 0 518 432" height="432" width="518">
<path fill="black" d="M163.346 175.745C163.346 178.189 162.887 180.099 161.971 181.473C161.131 182.772 159.985 183.765 158.534 184.452C157.083 185.139 155.441 185.559 153.608 185.712C151.851 185.865 150.057 185.979 148.224 186.056C152.348 190.333 155.632 195.259 158.076 200.834C160.52 206.409 161.742 212.176 161.742 218.133C161.742 224.014 160.749 229.78 158.763 235.432C156.778 241.007 153.952 245.971 150.286 250.324C146.62 254.678 142.228 258.191 137.111 260.864C131.994 263.537 126.304 264.874 120.042 264.874C115.077 264.874 110.61 263.919 106.638 262.01C102.667 260.1 99.1153 257.504 95.984 254.219C92.8527 250.859 90.1032 247.002 87.7356 242.649C85.368 238.219 83.3441 233.522 81.6639 228.558C79.9837 223.517 78.5707 218.324 77.4251 212.978C76.3559 207.631 75.4776 202.4 74.7902 197.283C74.1792 192.166 73.721 187.316 73.4155 182.734C73.1864 178.075 73.0718 173.912 73.0718 170.246C73.0718 165.969 73.2628 161.387 73.6446 156.499C74.1029 151.611 74.8284 146.685 75.8213 141.721C76.8141 136.756 78.1507 131.907 79.8309 127.171C81.5111 122.436 83.6496 118.083 86.2463 114.112C88.843 110.064 91.898 106.551 95.4112 103.572C99.0008 100.517 103.163 98.2257 107.898 96.6982C109.655 96.0872 111.411 95.6289 113.168 95.3235C114.925 95.018 116.681 94.8652 118.438 94.8652C126.075 94.8652 132.414 96.9273 137.455 101.052C142.572 105.176 146.391 110.751 148.911 117.777C149.369 118.847 149.751 119.954 150.057 121.1C150.362 122.169 150.515 123.276 150.515 124.422C150.515 125.797 150.018 126.675 149.026 127.057C148.033 127.439 147.002 127.63 145.932 127.63C143.183 127.63 140.968 127.133 139.288 126.14C137.608 125.148 136.195 123.926 135.049 122.474C133.904 121.023 132.873 119.42 131.956 117.663C131.116 115.906 130.161 114.302 129.092 112.851C128.023 111.4 126.686 110.178 125.082 109.185C123.479 108.193 121.34 107.696 118.667 107.696C114.848 107.696 111.488 108.765 108.586 110.904C105.683 113.042 103.163 115.868 101.025 119.381C98.8862 122.818 97.0914 126.751 95.6403 131.181C94.1892 135.534 93.0436 139.926 92.2035 144.356C91.3634 148.709 90.7524 152.909 90.3705 156.957C89.9886 161.005 89.7977 164.442 89.7977 167.268C89.7977 170.246 89.9886 174.371 90.3705 179.64C90.7524 184.91 91.3634 190.638 92.2035 196.824C93.12 203.011 94.3038 209.312 95.7549 215.727C97.2824 222.066 99.1535 227.832 101.368 233.026C103.659 238.219 106.333 242.458 109.388 245.742C112.519 249.026 116.147 250.668 120.271 250.668C123.86 250.668 127.106 249.637 130.008 247.575C132.911 245.436 135.355 242.802 137.34 239.67C139.402 236.463 140.968 233.064 142.037 229.474C143.107 225.808 143.641 222.41 143.641 219.278C143.641 216.3 143.221 213.359 142.381 210.457C141.541 207.479 140.357 204.691 138.83 202.094C137.302 199.421 135.469 196.977 133.331 194.762C131.192 192.471 128.825 190.562 126.228 189.034C125.311 188.423 124.28 187.889 123.135 187.43C122.066 186.896 120.958 186.438 119.813 186.056C119.202 185.979 118.018 185.903 116.261 185.827C114.505 185.674 112.71 185.483 110.877 185.254C109.044 185.025 107.402 184.681 105.951 184.223C104.5 183.688 103.774 182.924 103.774 181.932C103.774 180.557 104.003 179.144 104.461 177.693C104.92 176.242 105.569 174.943 106.409 173.798C107.325 172.652 108.356 171.697 109.502 170.934C110.724 170.17 112.099 169.788 113.626 169.788C115.841 169.788 118.209 170.132 120.729 170.819C123.326 171.43 125.617 172.156 127.603 172.996C131.421 172.767 135.202 172.538 138.944 172.308C142.687 172.003 146.391 171.621 150.057 171.163C151.355 171.01 152.615 170.819 153.837 170.59C155.136 170.361 156.472 170.246 157.847 170.246C159.68 170.246 161.054 170.666 161.971 171.507C162.887 172.347 163.346 173.76 163.346 175.745ZM200.005 261.322C200.005 262.392 199.738 263.27 199.203 263.957C198.669 264.645 197.981 265.179 197.141 265.561C196.377 266.019 195.499 266.325 194.506 266.478C193.59 266.707 192.75 266.821 191.986 266.821C189.313 266.821 186.983 266.057 184.998 264.53C183.012 263.002 181.294 261.017 179.842 258.573C178.391 256.205 177.208 253.494 176.291 250.439C175.375 247.308 174.611 244.215 174 241.16C173.389 238.028 172.931 235.05 172.625 232.224C172.32 229.322 172.091 226.839 171.938 224.777C171.25 217.675 170.754 210.457 170.448 203.125C170.219 195.793 170.105 188.538 170.105 181.359C170.105 161.731 170.792 142.294 172.167 123.047C172.167 122.742 172.167 122.398 172.167 122.016C172.243 121.634 172.281 121.252 172.281 120.871C172.358 119.267 172.434 117.434 172.511 115.372C172.587 113.233 172.702 111.133 172.854 109.071C173.007 107.009 173.16 105.138 173.312 103.457C173.542 101.701 173.809 100.479 174.114 99.7913V99.9059C174.42 98.8367 174.84 98.0347 175.375 97.5001C175.909 96.9655 176.826 96.6982 178.124 96.6982C180.874 96.6982 183.203 97.6147 185.112 99.4476C187.022 101.281 187.976 103.572 187.976 106.321C187.976 106.932 187.938 107.543 187.862 108.154C187.862 108.689 187.824 109.224 187.747 109.758C187.671 110.293 187.594 110.827 187.518 111.362C187.518 111.82 187.518 112.24 187.518 112.622C187.289 115.601 187.098 118.579 186.945 121.558C186.869 124.46 186.754 127.401 186.602 130.379C186.22 136.947 185.914 143.515 185.685 150.084C185.532 156.575 185.456 163.144 185.456 169.788C185.456 172.614 185.494 176.318 185.571 180.901C185.647 185.483 185.8 190.485 186.029 195.908C186.258 201.254 186.563 206.791 186.945 212.519C187.403 218.247 187.976 223.708 188.664 228.902C189.351 234.095 190.153 238.792 191.069 242.993C192.062 247.193 193.208 250.439 194.506 252.73C195.194 253.036 195.843 253.532 196.454 254.219C197.141 254.83 197.714 255.556 198.172 256.396C198.707 257.16 199.127 257.962 199.432 258.802C199.814 259.718 200.005 260.559 200.005 261.322ZM253.047 211.03C253.047 217.675 252.474 224.319 251.328 230.964C250.259 237.532 248.006 243.756 244.569 249.637C243.5 251.394 242.278 253.112 240.903 254.792C239.529 256.396 238.001 257.847 236.321 259.146C234.717 260.52 232.922 261.59 230.937 262.353C229.027 263.193 227.003 263.613 224.865 263.613C221.504 263.613 218.564 262.812 216.044 261.208C213.6 259.68 211.461 257.656 209.628 255.136C207.872 252.539 206.382 249.637 205.16 246.429C204.015 243.145 203.098 239.823 202.411 236.463C201.8 233.026 201.342 229.703 201.036 226.496C200.807 223.288 200.693 220.462 200.693 218.018C200.693 215.269 200.807 212.252 201.036 208.968C201.265 205.684 201.647 202.323 202.182 198.887C202.793 195.45 203.557 192.051 204.473 188.691C205.466 185.33 206.726 182.199 208.254 179.297C209.781 176.318 211.614 173.683 213.752 171.392C215.891 169.024 218.373 167.153 221.199 165.778V165.893C223.643 164.595 226.087 163.946 228.531 163.946C230.058 163.946 231.242 164.289 232.082 164.977C232.922 165.588 233.304 166.657 233.228 168.184C237.428 168.948 240.827 170.972 243.424 174.256C246.02 177.54 248.006 181.359 249.381 185.712C250.832 190.065 251.787 194.533 252.245 199.116C252.78 203.698 253.047 207.67 253.047 211.03ZM227.156 182.39C225.858 182.39 224.636 181.893 223.49 180.901C222.039 183.115 220.817 185.674 219.824 188.576C218.831 191.402 218.029 194.342 217.418 197.397C216.884 200.376 216.502 203.393 216.273 206.448C216.044 209.503 215.929 212.367 215.929 215.04C215.929 217.255 216.044 220.119 216.273 223.632C216.502 227.069 216.922 230.544 217.533 234.057C218.22 237.57 219.137 240.854 220.282 243.909C221.504 246.964 223.07 249.217 224.979 250.668C227.347 249.293 229.295 247.117 230.822 244.138C232.426 241.083 233.686 237.761 234.603 234.171C235.519 230.582 236.13 226.954 236.436 223.288C236.817 219.622 237.008 216.491 237.008 213.894C237.008 211.985 236.894 209.503 236.665 206.448C236.436 203.393 236.054 200.3 235.519 197.168C234.984 193.96 234.221 190.982 233.228 188.232C232.311 185.483 231.128 183.421 229.676 182.046C228.989 182.275 228.149 182.39 227.156 182.39ZM301.964 185.598C301.964 186.209 301.964 186.82 301.964 187.43C301.964 187.965 301.888 188.5 301.735 189.034C302.881 193.159 303.912 197.321 304.828 201.521C305.821 205.646 306.776 209.77 307.692 213.894C308.151 209.235 308.533 204.576 308.838 199.918C309.22 195.182 309.411 190.485 309.411 185.827C309.411 181.244 309.258 176.585 308.953 171.85C308.647 167.039 307.883 162.456 306.661 158.103L306.203 156.499C306.05 156.117 305.936 155.697 305.859 155.239C305.783 154.781 305.745 154.322 305.745 153.864C305.745 153.024 305.936 152.375 306.318 151.917C306.776 151.382 307.311 151 307.922 150.771C308.533 150.542 309.22 150.389 309.984 150.313C310.747 150.236 311.435 150.198 312.046 150.198C313.955 150.198 315.941 150.427 318.003 150.886C319.378 151.267 320.485 151.84 321.325 152.604C322.165 153.291 322.776 154.131 323.158 155.124C323.616 156.117 323.922 157.225 324.075 158.447C324.227 159.592 324.342 160.776 324.418 161.998C324.418 162.151 324.418 162.303 324.418 162.456C324.495 162.609 324.533 162.762 324.533 162.914C324.915 166.275 325.182 169.674 325.335 173.11C325.564 176.471 325.678 179.793 325.678 183.077C325.678 193.311 325.067 203.507 323.845 213.665C322.7 223.823 321.287 233.904 319.607 243.909C319.378 245.436 319.034 247.002 318.576 248.606C318.194 250.21 317.621 251.699 316.857 253.074C316.094 254.449 315.101 255.594 313.879 256.511C312.657 257.351 311.129 257.771 309.296 257.771C307.234 257.771 305.554 257.313 304.256 256.396C302.957 255.403 301.888 254.181 301.048 252.73C300.284 251.203 299.711 249.522 299.329 247.69C298.948 245.857 298.642 244.062 298.413 242.305C298.26 241.465 298.107 240.701 297.955 240.014C297.878 239.327 297.764 238.677 297.611 238.066L294.403 223.861C293.792 225.999 292.952 228.711 291.883 231.995C290.89 235.202 289.783 238.448 288.561 241.732C287.415 245.016 286.231 247.995 285.009 250.668C283.864 253.341 282.909 255.174 282.145 256.167C281.305 257.16 280.236 257.924 278.938 258.458C277.639 259.069 276.341 259.375 275.043 259.375C272.751 259.375 270.766 258.649 269.085 257.198C267.558 255.671 266.565 253.914 266.107 251.928C265.649 249.943 265.305 247.957 265.076 245.971C265.076 245.818 265.038 245.627 264.961 245.398C264.961 245.169 264.961 244.978 264.961 244.825C263.816 236.424 262.975 227.909 262.441 219.278C261.906 210.572 261.639 201.903 261.639 193.273V174.256C261.639 173.569 261.677 172.843 261.753 172.079C261.83 171.316 261.983 170.628 262.212 170.017C262.517 169.33 262.937 168.795 263.472 168.413C264.083 168.032 264.923 167.841 265.992 167.841C268.818 167.841 271.147 168.681 272.98 170.361C274.813 172.041 275.844 174.256 276.074 177.005C276.303 180.671 276.455 184.376 276.532 188.118C276.685 191.86 276.799 195.564 276.876 199.23C276.952 203.431 276.99 207.517 276.99 211.488C277.066 215.383 277.334 219.508 277.792 223.861C278.709 220.882 279.587 217.789 280.427 214.581C281.267 211.374 281.993 208.128 282.604 204.844C283.291 201.56 283.826 198.314 284.207 195.106C284.666 191.822 284.895 188.652 284.895 185.598C284.895 185.216 284.857 184.91 284.78 184.681C284.78 184.376 284.78 184.032 284.78 183.65C284.704 183.268 284.666 182.886 284.666 182.504C284.666 182.123 284.666 181.741 284.666 181.359C284.666 179.449 285.086 178.037 285.926 177.12C286.766 176.204 288.217 175.745 290.279 175.745C291.043 175.745 291.959 175.86 293.029 176.089C294.174 176.318 295.282 176.662 296.351 177.12C297.496 177.578 298.528 178.151 299.444 178.838C300.361 179.526 300.971 180.29 301.277 181.13H301.162C301.544 181.893 301.773 182.619 301.85 183.306C301.926 183.994 301.964 184.757 301.964 185.598ZM380.897 265.79C380.897 268.921 380.782 272.206 380.553 275.642C380.324 279.079 379.942 282.516 379.408 285.953C378.873 289.466 378.147 292.903 377.231 296.263C376.314 299.624 375.169 302.755 373.794 305.657C371.503 309.934 368.601 313.677 365.087 316.884C361.651 320.168 357.87 322.918 353.746 325.133C349.622 327.348 345.23 329.028 340.571 330.173C335.913 331.319 331.216 331.892 326.48 331.892C325.793 331.892 324.991 331.854 324.075 331.777C323.082 331.701 322.127 331.51 321.211 331.204C320.294 330.975 319.53 330.555 318.919 329.944C318.308 329.333 318.003 328.493 318.003 327.424C318.003 326.966 318.117 326.507 318.347 326.049C318.347 325.896 318.385 325.744 318.461 325.591C318.461 325.515 318.461 325.438 318.461 325.362C318.996 323.834 319.607 322.612 320.294 321.696C320.981 320.779 321.783 320.054 322.7 319.519C323.54 319.061 324.571 318.717 325.793 318.488C326.939 318.335 328.275 318.183 329.803 318.03C334.691 317.801 339.311 316.655 343.665 314.593V314.708C348.629 312.264 352.524 309.209 355.35 305.543C358.252 301.953 360.429 297.944 361.88 293.514C363.407 289.161 364.362 284.54 364.744 279.652C365.126 274.764 365.317 269.838 365.317 264.874C365.317 263.728 365.317 262.888 365.317 262.353C365.317 261.819 365.317 261.322 365.317 260.864C365.317 260.482 365.317 260.024 365.317 259.489C365.317 258.955 365.278 258.115 365.202 256.969C362.529 259.031 359.741 260.062 356.839 260.062C353.479 260.062 350.615 259.146 348.247 257.313C345.956 255.403 344.008 252.959 342.404 249.981C340.877 246.926 339.655 243.489 338.738 239.67C337.898 235.775 337.249 231.842 336.791 227.87C336.409 223.823 336.142 219.889 335.989 216.071C335.913 212.252 335.874 208.853 335.874 205.875V201.063C335.874 197.015 335.874 193.044 335.874 189.149C335.951 185.254 336.104 181.359 336.333 177.464V175.745C336.333 174.829 336.333 173.912 336.333 172.996C336.333 172.079 336.409 171.201 336.562 170.361C336.867 169.139 337.287 168.261 337.822 167.726C338.433 167.191 339.388 166.924 340.686 166.924C341.297 166.924 341.87 166.962 342.404 167.039C343.015 167.115 343.626 167.23 344.237 167.382C345.688 167.993 346.834 168.643 347.674 169.33C348.514 169.941 349.125 170.705 349.507 171.621C349.965 172.461 350.233 173.454 350.309 174.6C350.462 175.745 350.538 177.082 350.538 178.609V193.96C350.538 195.793 350.538 198.085 350.538 200.834C350.615 203.507 350.729 206.448 350.882 209.655C351.035 212.863 351.226 216.185 351.455 219.622C351.684 223.059 352.027 226.381 352.486 229.589C352.944 232.797 353.479 235.737 354.09 238.41C354.701 241.083 355.464 243.298 356.381 245.055C357.756 242.076 358.939 238.601 359.932 234.63C360.925 230.582 361.727 226.267 362.338 221.684C363.025 217.025 363.522 212.252 363.827 207.364C364.209 202.476 364.476 197.703 364.629 193.044C364.858 188.385 364.973 183.994 364.973 179.869C365.049 175.669 365.087 172.003 365.087 168.872C365.087 168.108 365.087 167.306 365.087 166.466C365.164 165.549 365.355 164.747 365.66 164.06C365.966 163.296 366.386 162.685 366.92 162.227C367.531 161.769 368.41 161.54 369.555 161.54C370.09 161.54 370.663 161.616 371.274 161.769C371.961 161.922 372.534 162.074 372.992 162.227C373.145 162.227 373.298 162.265 373.45 162.342C373.679 162.342 373.87 162.342 374.023 162.342C375.092 162.724 376.123 163.105 377.116 163.487C378.109 163.869 378.949 164.366 379.637 164.977C380.4 165.511 380.973 166.237 381.355 167.153C381.813 168.07 382.042 169.254 382.042 170.705C382.042 172.461 382.004 174.485 381.928 176.776C381.928 178.991 381.851 181.321 381.699 183.765C381.622 186.209 381.508 188.614 381.355 190.982C381.202 193.273 381.05 195.335 380.897 197.168L380.439 201.178C380.286 202.247 380.171 203.316 380.095 204.386C380.019 205.455 379.98 206.448 379.98 207.364C379.98 212.252 380.019 217.14 380.095 222.028C380.171 226.839 380.286 231.689 380.439 236.577C380.591 241.465 380.706 246.353 380.782 251.241C380.859 256.052 380.897 260.902 380.897 265.79ZM437.49 265.79C437.49 268.921 437.375 272.206 437.146 275.642C436.917 279.079 436.535 282.516 436.001 285.953C435.466 289.466 434.74 292.903 433.824 296.263C432.907 299.624 431.762 302.755 430.387 305.657C428.096 309.934 425.194 313.677 421.68 316.884C418.244 320.168 414.463 322.918 410.339 325.133C406.215 327.348 401.823 329.028 397.164 330.173C392.506 331.319 387.809 331.892 383.073 331.892C382.386 331.892 381.584 331.854 380.668 331.777C379.675 331.701 378.72 331.51 377.804 331.204C376.887 330.975 376.123 330.555 375.512 329.944C374.901 329.333 374.596 328.493 374.596 327.424C374.596 326.966 374.711 326.507 374.94 326.049C374.94 325.896 374.978 325.744 375.054 325.591C375.054 325.515 375.054 325.438 375.054 325.362C375.589 323.834 376.2 322.612 376.887 321.696C377.575 320.779 378.376 320.054 379.293 319.519C380.133 319.061 381.164 318.717 382.386 318.488C383.532 318.335 384.868 318.183 386.396 318.03C391.284 317.801 395.904 316.655 400.258 314.593V314.708C405.222 312.264 409.117 309.209 411.943 305.543C414.845 301.953 417.022 297.944 418.473 293.514C420 289.161 420.955 284.54 421.337 279.652C421.719 274.764 421.91 269.838 421.91 264.874C421.91 263.728 421.91 262.888 421.91 262.353C421.91 261.819 421.91 261.322 421.91 260.864C421.91 260.482 421.91 260.024 421.91 259.489C421.91 258.955 421.871 258.115 421.795 256.969C419.122 259.031 416.334 260.062 413.432 260.062C410.072 260.062 407.208 259.146 404.84 257.313C402.549 255.403 400.601 252.959 398.997 249.981C397.47 246.926 396.248 243.489 395.331 239.67C394.491 235.775 393.842 231.842 393.384 227.87C393.002 223.823 392.735 219.889 392.582 216.071C392.506 212.252 392.467 208.853 392.467 205.875V201.063C392.467 197.015 392.467 193.044 392.467 189.149C392.544 185.254 392.697 181.359 392.926 177.464V175.745C392.926 174.829 392.926 173.912 392.926 172.996C392.926 172.079 393.002 171.201 393.155 170.361C393.46 169.139 393.88 168.261 394.415 167.726C395.026 167.191 395.981 166.924 397.279 166.924C397.89 166.924 398.463 166.962 398.997 167.039C399.608 167.115 400.219 167.23 400.83 167.382C402.282 167.993 403.427 168.643 404.267 169.33C405.107 169.941 405.718 170.705 406.1 171.621C406.558 172.461 406.826 173.454 406.902 174.6C407.055 175.745 407.131 177.082 407.131 178.609V193.96C407.131 195.793 407.131 198.085 407.131 200.834C407.208 203.507 407.322 206.448 407.475 209.655C407.628 212.863 407.819 216.185 408.048 219.622C408.277 223.059 408.621 226.381 409.079 229.589C409.537 232.797 410.072 235.737 410.683 238.41C411.294 241.083 412.057 243.298 412.974 245.055C414.349 242.076 415.532 238.601 416.525 234.63C417.518 230.582 418.32 226.267 418.931 221.684C419.618 217.025 420.115 212.252 420.42 207.364C420.802 202.476 421.069 197.703 421.222 193.044C421.451 188.385 421.566 183.994 421.566 179.869C421.642 175.669 421.68 172.003 421.68 168.872C421.68 168.108 421.68 167.306 421.68 166.466C421.757 165.549 421.948 164.747 422.253 164.06C422.559 163.296 422.979 162.685 423.513 162.227C424.124 161.769 425.003 161.54 426.148 161.54C426.683 161.54 427.256 161.616 427.867 161.769C428.554 161.922 429.127 162.074 429.585 162.227C429.738 162.227 429.891 162.265 430.043 162.342C430.273 162.342 430.463 162.342 430.616 162.342C431.685 162.724 432.717 163.105 433.709 163.487C434.702 163.869 435.542 164.366 436.23 164.977C436.993 165.511 437.566 166.237 437.948 167.153C438.406 168.07 438.635 169.254 438.635 170.705C438.635 172.461 438.597 174.485 438.521 176.776C438.521 178.991 438.445 181.321 438.292 183.765C438.215 186.209 438.101 188.614 437.948 190.982C437.795 193.273 437.643 195.335 437.49 197.168L437.032 201.178C436.879 202.247 436.764 203.316 436.688 204.386C436.612 205.455 436.573 206.448 436.573 207.364C436.573 212.252 436.612 217.14 436.688 222.028C436.764 226.839 436.879 231.689 437.032 236.577C437.184 241.465 437.299 246.353 437.375 251.241C437.452 256.052 437.49 260.902 437.49 265.79Z"></path>
</svg>
