<svg xmlns="http://www.w3.org/2000/svg" fill="none" viewBox="0 0 734 432" height="432" width="734">
<path fill="black" d="M174.88 216H111.16V211.68H119.8V133.92H111.16V129.6H174.88L184.924 139.644V162.756L175.96 171.72L184.924 180.684V205.956L174.88 216ZM144.64 133.92V169.56H160.084V133.92H144.64ZM144.64 173.88V211.68H160.084V173.88H144.64ZM261.92 216H192.476V211.68H201.116V133.92H192.476V129.6H261.92V154.44H257.06V133.92H225.956V169.56H253.82V173.88H225.956V211.68H257.06V191.16H261.92V216ZM363.295 211.68V216H318.583V211.68H330.139L321.067 183.6H291.151L281.971 211.68H292.987V216H269.443V211.68H276.787L303.463 129.6H329.275L355.951 211.68H363.295ZM319.663 179.28L306.055 137.592L292.555 179.28H319.663ZM450.524 133.92H441.884V204.876L430.76 216H387.344L376.22 204.876V133.92H367.58V129.6H409.7V133.92H401.06V211.68H428.384L437.024 203.04V133.92H428.384V129.6H450.524V133.92ZM464.037 154.44H459.177V129.6H532.617V154.44H527.757V133.92H508.317V211.68H516.957V216H474.837V211.68H483.477V133.92H464.037V154.44ZM591.939 174.96V211.68H600.579V216H558.459V211.68H567.099V179.064L545.067 133.92H536.967V129.6H578.547V133.92H571.959L589.347 169.56L606.627 133.92H597.123V129.6H620.127V133.92H611.919L591.939 174.96Z"></path>
<path fill="black" d="M112.96 254.48H126.172C128.764 254.48 131.2 254.828 133.48 255.524C135.76 256.22 137.608 257.396 139.024 259.052C140.44 260.708 141.148 263.012 141.148 265.964C141.148 267.956 140.752 269.768 139.96 271.4C139.192 273.008 138.232 274.316 137.08 275.324C135.928 276.332 134.788 276.932 133.66 277.124C134.572 277.196 135.58 277.484 136.684 277.988C137.812 278.492 138.88 279.212 139.888 280.148C140.92 281.084 141.76 282.26 142.408 283.676C143.08 285.068 143.416 286.724 143.416 288.644C143.416 291.236 142.888 293.54 141.832 295.556C140.776 297.572 139.168 299.156 137.008 300.308C134.872 301.436 132.16 302 128.872 302H112.96V254.48ZM119.08 296.852H128.26C130.54 296.852 132.304 296.456 133.552 295.664C134.824 294.848 135.712 293.792 136.216 292.496C136.744 291.2 137.008 289.82 137.008 288.356C137.008 285.932 136.216 283.976 134.632 282.488C133.048 281 130.756 280.256 127.756 280.256H119.08V296.852ZM119.08 275.216H127.036C128.86 275.216 130.36 274.82 131.536 274.028C132.712 273.212 133.588 272.18 134.164 270.932C134.74 269.66 135.028 268.352 135.028 267.008C135.028 264.248 134.212 262.328 132.58 261.248C130.972 260.168 128.812 259.628 126.1 259.628H119.08V275.216ZM151.28 254.48H157.436V296.42H176.12V302H151.28V254.48ZM212.41 254.48H218.566V284C218.566 287.912 217.786 291.284 216.226 294.116C214.666 296.924 212.518 299.084 209.782 300.596C207.07 302.108 203.962 302.864 200.458 302.864C196.954 302.864 193.822 302.108 191.062 300.596C188.326 299.084 186.178 296.924 184.618 294.116C183.058 291.284 182.278 287.912 182.278 284V254.48H188.398V283.676C188.398 286.436 188.926 288.824 189.982 290.84C191.038 292.856 192.478 294.416 194.302 295.52C196.126 296.6 198.178 297.14 200.458 297.14C202.738 297.14 204.778 296.6 206.578 295.52C208.378 294.416 209.794 292.856 210.826 290.84C211.882 288.824 212.41 286.436 212.41 283.676V254.48ZM227.465 254.48H255.545V260.06H233.549V275.468H255.113V280.904H233.549V296.42H255.545V302H227.465V254.48ZM265.617 254.48H279.081C282.057 254.48 284.733 254.972 287.109 255.956C289.509 256.916 291.417 258.428 292.833 260.492C294.249 262.556 294.957 265.244 294.957 268.556C294.957 271.844 294.249 274.568 292.833 276.728C291.417 278.888 289.509 280.508 287.109 281.588C284.733 282.644 282.057 283.172 279.081 283.172H271.773V302H265.617V254.48ZM271.773 278.024H277.389C279.429 278.024 281.277 277.724 282.933 277.124C284.613 276.524 285.945 275.54 286.929 274.172C287.937 272.804 288.441 270.968 288.441 268.664C288.441 266.336 287.937 264.524 286.929 263.228C285.945 261.908 284.613 260.984 282.933 260.456C281.277 259.904 279.429 259.628 277.389 259.628H271.773V278.024ZM302.593 254.48H319.189C321.757 254.48 324.085 255.02 326.173 256.1C328.285 257.156 329.965 258.716 331.213 260.78C332.485 262.82 333.121 265.316 333.121 268.268C333.121 271.196 332.533 273.62 331.357 275.54C330.205 277.46 328.813 278.912 327.181 279.896C325.549 280.856 324.037 281.384 322.645 281.48L334.417 302H327.433L316.417 281.912H308.749V302H302.593V254.48ZM308.749 277.34H317.029C319.861 277.34 322.201 276.632 324.049 275.216C325.897 273.8 326.821 271.532 326.821 268.412C326.821 265.292 325.897 263.048 324.049 261.68C322.225 260.312 319.897 259.628 317.065 259.628H308.749V277.34ZM343.07 254.48H349.262V302H343.07V254.48ZM365.131 260.312L365.527 260.384V302H359.371V254.48H368.047L392.707 296.06L392.311 296.132V254.48H398.467V302H389.719L365.131 260.312ZM417.96 260.06H405.144V254.48H436.968V260.06H424.152V302H417.96V260.06Z"></path>
</svg>
