<svg xmlns="http://www.w3.org/2000/svg" fill="none" viewBox="0 0 379 97" height="97" width="379">
<path fill="black" d="M0 0.0551758C0 0.0551758 0 23.2382 0 48.7222V96.5H10.5H20.5L25 91.1792C27.514 87.6482 29.233 88.2372 32.292 91.1792C37.8244 96.5 56.289 99.7322 69.697 93.5942C75.477 90.9472 83.699 83.2262 86.17 78.1232L87.709 74.9462L88.284 80.5192C88.898 86.4622 91.554 91.7392 94.993 93.8442C102.5 98.4392 112.5 97.8773 123.208 92.4502C126.063 91.0032 130.5 87.5 134 84C137.5 80.5 141 77.5 141 77.5C141 77.5 141 81.7792 141 87.0552V96.5H155.5H170L170.022 74.3052C170.041 56.2132 170.282 53.0432 171.902 49.5552C175.671 41.4442 186.332 31.7392 192.92 30.4212C201.889 28.6272 198.252 45.4772 181.616 82.8052L176.139 96.5H192.92H209.701L213.337 83.8052C215.327 77.6182 220 60 220 60C220 60 220.618 64.4623 221.411 67.2262C223.777 75.4751 226.92 80.1464 232.71 86.0732C238.5 92 249.992 98 269.496 96.5C274.5 96.1152 287 95.0552 295.338 81.5552L297 77.5V86.0732V96.5H312.539H326.772L327 73.5152C327 48.8002 327.145 48.2442 335.858 39.4682C342.299 32.9822 348.5 28.6257 351.747 30.6602C356.5 33.6383 351.747 49.4962 341.5 73.5152C338.492 80.565 332 96.5 332 96.5H349H366L370.234 82.5552C375.058 67.3402 379 48.1652 378.998 39.9292C378.996 31.9042 378 27.1659 373.5 23.5C369.578 20.3052 365.108 20.2432 359.5 20.3052C352.314 20.3846 348.354 22.6408 342 26C335.307 29.539 326.772 38 326.772 38V20.3052V0H313H297V24.5V45C297 45 292.757 37 291.5 36C290.243 35 285.5 27 273.5 23C261.5 19 245.93 18.937 235 28.5002C227 35.5 223 44.5 223 44.5V39C223 35 223 28.5 217 24C214.116 21.8367 210 20.5 204 20.5C194.5 20.5 189 23.4 179.5 31C174.5 35 170.022 38.5 170.022 38.5L170 21.0552H155.5H141V60C141 60 140.5 66.8768 136 72.5C131.5 78.1232 131 79.0552 127 82C123 84.9448 117 88 114.5 86C110.788 83.0307 116.813 61.7642 128.353 34.8052L133.811 21.0552H117.066H100.321L98.085 29.8052C96.854 34.0672 94.875 41.7172 93.687 46.8052C92.498 51.8932 90.894 56.0552 90.894 56.0552C90.894 56.0552 90.8652 50.3504 87.709 43.5872C84.5528 36.824 80.0248 30.3095 72 25.5002C62.3349 19.7079 51.025 19.9452 43.5 21.0002C35.975 22.0552 29 28.5002 29 28.5002C29 28.5002 29 21.9802 29 14.5552V0.0551758H15.167C7.558 0.0551758 0 0.0551758 0 0.0551758ZM38 29.5002C34.5 31.0557 34.3618 43.5872 41 61.5002C49.5 84.4372 56.5 88.9452 61 88.0002C65.5 87.0552 62.8744 69.6653 57 54.0002C49.5 34.0002 41.5 27.9446 38 29.5002ZM246.309 31.3052C245.864 31.9932 245.572 35.9302 245.659 40.0552C245.939 53.2072 256.303 77.6104 263 83.8052C269.697 90 273 87.0552 273 79.7572C273 72.4592 273 72.5 273 72.5C273 72.5 280.288 74 287 74C293.712 74 297 73.5152 297 73.5152V66.5V59L269.496 61.3352L267.595 55.9452C262.405 41.2312 254.807 30.0552 249.992 30.0552C248.411 30.0552 246.754 30.6182 246.309 31.3052Z" clip-rule="evenodd" fill-rule="evenodd"></path>
</svg>
